# xmcd
#
# Track frame offsets: 
#        150
#        13566
#        38819
#        56331
#        72451
#        85732
#        101032
#        120571
#        144185
#        168868
#        193991
#        220745
#        245299
#        262235
#        279140
#        309298
#        323732
#
# Disc length: 4757 seconds
#
# Revision: 0
# Processed by: cddbd v1.5.2PL0 Copyright (c) Steve Scherf et al.
# Submitted via: ExactAudioCopy v1.3
#
DISCID=e6129311
DTITLE=Various Artist - Akella Presents - vol. 184 - Electric Blues  
DTITLE=CD2
DYEAR=2019
DGENRE=Blues
TTITLE0=Steve Freund - Dangerous Man
TTITLE1=John Mayall - The Hurt Inside
TTITLE2=Travellin' Blue Kings - Straight Eight
TTITLE3=Charlie Vitamine - All Along the Watchtower
TTITLE4=Tom Euler - Broken Soul
TTITLE5=Blue Attitude - Blue Line
TTITLE6=RJ Mischo - Leave Your Man
TTITLE7=Van Dyck Inc. - Southern Soul Stew
TTITLE8=The Jimmys - Wrecking Ball
TTITLE9=Jimmy Barnes - Tougher Than The Rest
TTITLE10=Bill Swindlehurst - Bad News Blues
TTITLE11=Billy Hector - Hit the Road
TTITLE12=Jimy Rev - Have You Seen My Baby
TTITLE13=Billy C. Farlow - Alligator Crawl
TTITLE14=The Black Cat Bone - Catfish Blues
TTITLE15=Burton Gaar - I Be Gone
TTITLE16=Linsey Alexander - I Got a Woman
EXTD=
EXTT0=
EXTT1=
EXTT2=
EXTT3=
EXTT4=
EXTT5=
EXTT6=
EXTT7=
EXTT8=
EXTT9=
EXTT10=
EXTT11=
EXTT12=
EXTT13=
EXTT14=
EXTT15=
EXTT16=
PLAYORDER=
